<svg width="56" height="56" viewBox="0 0 56 56" fill="none" xmlns="http://www.w3.org/2000/svg">
<circle cx="28" cy="28" r="28" fill="#F4F7FE"/>
<path d="M27.9941 40C26.3442 40 24.79 39.6878 23.3317 39.0633C21.8734 38.4389 20.5991 37.5815 19.5088 36.4912C18.4185 35.4009 17.5611 34.1274 16.9367 32.6706C16.3122 31.2137 16 29.6604 16 28.0104C16 26.3412 16.3122 24.7774 16.9367 23.3191C17.5611 21.8608 18.4177 20.591 19.5062 19.5098C20.5948 18.4286 21.8679 17.5733 23.3255 16.944C24.7831 16.3147 26.3373 16 27.9882 16C29.6583 16 31.2232 16.3142 32.6828 16.9427C34.1425 17.5712 35.4124 18.4254 36.4928 19.5051C37.5732 20.5849 38.4279 21.8541 39.0567 23.3129C39.6856 24.7716 40 26.3367 40 28.0082C40 29.6596 39.6853 31.2144 39.056 32.6726C38.4267 34.1307 37.5714 35.4043 36.4902 36.4932C35.409 37.5822 34.14 38.4389 32.6832 39.0633C31.2263 39.6878 29.6633 40 27.9941 40ZM27.9918 37.7061C30.6894 37.7061 32.9801 36.7628 34.864 34.8761C36.7478 32.9895 37.6898 30.7002 37.6898 28.0082C37.6898 25.3106 36.7478 23.0199 34.864 21.136C32.9801 19.2522 30.6867 18.3102 27.9836 18.3102C25.2999 18.3102 23.014 19.2522 21.126 21.136C19.2379 23.0199 18.2939 25.3133 18.2939 28.0164C18.2939 30.7001 19.2372 32.986 21.1239 34.874C23.0105 36.7621 25.2998 37.7061 27.9918 37.7061ZM27.9629 36.3187C28.1992 36.3187 28.405 36.2394 28.5802 36.0808C28.7553 35.9221 28.8429 35.7094 28.8429 35.4425V34.8784C29.9902 34.7542 30.8996 34.3688 31.5711 33.7221C32.2426 33.0754 32.5783 32.223 32.5783 31.165C32.5783 30.1365 32.2977 29.3127 31.7367 28.6937C31.1756 28.0747 30.206 27.5432 28.8279 27.0992C27.6276 26.6938 26.8088 26.296 26.3715 25.9057C25.9342 25.5154 25.7156 25.0094 25.7156 24.3878C25.7156 23.8376 25.9191 23.4076 26.3262 23.098C26.7333 22.7884 27.2859 22.6336 27.9843 22.6336C28.4476 22.6336 28.8599 22.7177 29.2212 22.886C29.5825 23.0543 29.9011 23.3176 30.1768 23.676C30.3392 23.8632 30.5306 23.9775 30.7509 24.0191C30.9712 24.0606 31.1791 24.0222 31.3747 23.9039C31.6089 23.7746 31.7543 23.5957 31.8109 23.3669C31.8676 23.1382 31.8229 22.9206 31.6769 22.7142C31.3378 22.2509 30.9427 21.8897 30.4915 21.6307C30.0404 21.3716 29.5102 21.2019 28.9008 21.1216V20.5739C28.9008 20.2961 28.8105 20.0854 28.6299 19.9419C28.4492 19.7984 28.2462 19.7266 28.0208 19.7266C27.7953 19.7266 27.5875 19.7984 27.3972 19.9419C27.2069 20.0854 27.1118 20.2961 27.1118 20.5739V21.1216C26.0945 21.2785 25.3093 21.6551 24.7562 22.2514C24.2031 22.8477 23.9266 23.5773 23.9266 24.4402C23.9266 25.4231 24.1891 26.2053 24.7141 26.787C25.2391 27.3686 26.2167 27.9268 27.6469 28.4614C28.9084 28.939 29.7475 29.3599 30.1642 29.7242C30.5809 30.0884 30.7893 30.5685 30.7893 31.1644C30.7893 31.7691 30.5478 32.2803 30.0647 32.6981C29.5817 33.116 28.9583 33.3249 28.1945 33.3249C27.5724 33.3249 27.004 33.1786 26.4894 32.8861C25.9747 32.5936 25.5762 32.1783 25.2938 31.6403C25.1755 31.4532 25.0234 31.3107 24.8374 31.2129C24.6515 31.1151 24.4553 31.1007 24.2489 31.1695C23.9652 31.2769 23.7826 31.4483 23.7012 31.6838C23.6198 31.9192 23.6576 32.154 23.8145 32.3882C24.2115 33.047 24.6782 33.5743 25.2145 33.9701C25.7508 34.3658 26.364 34.6493 27.0539 34.8205V35.4551C27.0539 35.7001 27.1463 35.9054 27.3311 36.0707C27.5159 36.236 27.7265 36.3187 27.9629 36.3187Z" fill="#00FFB2"/>
</svg>
