<svg width="56" height="56" viewBox="0 0 56 56" fill="none" xmlns="http://www.w3.org/2000/svg">
<circle cx="28" cy="28" r="28" fill="#F4F7FE"/>
<path d="M25.8513 31.2448C25.5422 31.2448 25.2822 31.1394 25.0714 30.9286C24.8606 30.7178 24.7552 30.4578 24.7552 30.1487V25.8564C24.7552 25.5682 24.8606 25.3178 25.0714 25.1054C25.2822 24.8929 25.5422 24.7867 25.8513 24.7867H30.1436C30.4318 24.7867 30.6822 24.8929 30.8946 25.1054C31.1071 25.3178 31.2133 25.5682 31.2133 25.8564V30.1487C31.2133 30.4578 31.1071 30.7178 30.8946 30.9286C30.6822 31.1394 30.4318 31.2448 30.1436 31.2448H25.8513ZM24.963 40C24.6583 40 24.4077 39.8983 24.2114 39.695C24.0151 39.4917 23.9169 39.2397 23.9169 38.9392V37.2661H21.2296C20.5468 37.2661 19.9602 37.0208 19.4697 36.5303C18.9792 36.0398 18.7339 35.4532 18.7339 34.7704V32.0831H17.0588C16.7627 32.0831 16.5122 31.9843 16.3073 31.7866C16.1024 31.589 16 31.3353 16 31.0256C16 30.7311 16.1017 30.486 16.305 30.2904C16.5083 30.0948 16.7603 29.997 17.0608 29.997H18.7339V25.877H17.0605C16.7649 25.877 16.5143 25.7773 16.3085 25.578C16.1028 25.3786 16 25.1316 16 24.837C16 24.5322 16.1017 24.2817 16.305 24.0854C16.5083 23.8891 16.7603 23.7909 17.0608 23.7909H18.7339V21.1035C18.7339 20.4159 18.9792 19.8251 19.4697 19.3311C19.9602 18.8371 20.5468 18.5901 21.2296 18.5901H23.9169V17.0535C23.9169 16.7609 24.0157 16.5122 24.2134 16.3073C24.411 16.1024 24.6617 16 24.9655 16C25.2642 16 25.5114 16.1008 25.7072 16.3024C25.903 16.5041 26.0009 16.7539 26.0009 17.0519V18.5901H30.123V17.0516C30.123 16.7585 30.2227 16.51 30.422 16.306C30.6214 16.102 30.8684 16 31.163 16C31.4678 16 31.7183 16.1008 31.9146 16.3024C32.1109 16.5041 32.2091 16.7539 32.2091 17.0519V18.5901H34.8965C35.5841 18.5901 36.1749 18.8371 36.6689 19.3311C37.1629 19.8251 37.4099 20.4159 37.4099 21.1035V23.7909H38.9465C39.2391 23.7909 39.4878 23.8897 39.6927 24.0873C39.8976 24.285 40 24.5357 40 24.8394C40 25.1382 39.8992 25.3854 39.6976 25.5812C39.496 25.777 39.2461 25.8749 38.9481 25.8749H37.4099V29.997H38.9484C39.2415 29.997 39.49 30.0967 39.694 30.296C39.898 30.4953 40 30.7423 40 31.037C40 31.3417 39.8992 31.5923 39.6976 31.7886C39.496 31.9849 39.2461 32.0831 38.9481 32.0831H37.4099V34.7704C37.4099 35.4532 37.1629 36.0398 36.6689 36.5303C36.1749 37.0208 35.5841 37.2661 34.8965 37.2661H32.2091V38.9412C32.2091 39.2373 32.1103 39.4878 31.9127 39.6927C31.715 39.8976 31.4614 40 31.1516 40C30.8571 40 30.612 39.8983 30.4164 39.695C30.2208 39.4917 30.123 39.2397 30.123 38.9392V37.2661H26.003V38.9395C26.003 39.2351 25.9033 39.4857 25.704 39.6915C25.5047 39.8972 25.2577 40 24.963 40ZM21.2296 34.7704H34.8965V21.1035H21.2296V34.7704ZM26.6454 29.3546H29.3231V26.6769H26.6454V29.3546Z" fill="#00FFB2"/>
</svg>
