<svg width="56" height="56" viewBox="0 0 56 56" fill="none" xmlns="http://www.w3.org/2000/svg">
<circle cx="28" cy="28" r="28" fill="#F4F7FE"/>
<path d="M28 41C27.7843 41 27.5679 40.9695 27.3507 40.9084C27.1336 40.8473 26.9313 40.7617 26.7439 40.6516L17.2925 35.2252C16.8816 34.9934 16.5635 34.6871 16.3381 34.3062C16.1127 33.9254 16 33.498 16 33.0241V22.6862C16 22.2123 16.1181 21.7766 16.3542 21.3789C16.5903 20.9813 16.9138 20.6726 17.3247 20.453L26.7761 15.3162C26.9635 15.2061 27.1604 15.1259 27.3668 15.0755C27.5732 15.0252 27.7843 15 28 15C28.2157 15 28.4268 15.0252 28.6332 15.0755C28.8396 15.1259 29.0426 15.2061 29.2421 15.3162L38.6753 20.453C39.0862 20.6726 39.4097 20.9813 39.6458 21.3789C39.8819 21.7766 40 22.2123 40 22.6862V33.0241C40 33.498 39.8873 33.9254 39.6619 34.3062C39.4365 34.6871 39.1184 34.9934 38.7075 35.2252L29.2743 40.6516C29.0747 40.7617 28.8664 40.8473 28.6493 40.9084C28.4321 40.9695 28.2157 41 28 41ZM24.2961 24.6075C24.8015 24.114 25.3675 23.7208 25.9942 23.4278C26.6208 23.1349 27.2894 22.9885 28 22.9885C28.7106 22.9885 29.3792 23.1349 30.0058 23.4278C30.6325 23.7208 31.1985 24.114 31.7039 24.6075L36.1715 21.9656L28 17.6321L19.8285 21.9656L24.2961 24.6075ZM26.8348 37.7578V32.8926C25.7074 32.5922 24.7821 31.9984 24.059 31.1113C23.3358 30.2242 22.9742 29.1924 22.9742 28.0161C22.9742 27.8258 22.9819 27.6217 22.9973 27.4039C23.0127 27.1861 23.068 26.9438 23.1631 26.677L18.5486 23.9204V33.0144L26.8348 37.7578ZM28.0024 30.7125C28.7552 30.7125 29.3922 30.4456 29.9135 29.9118C30.4348 29.378 30.6954 28.7453 30.6954 28.0137C30.6954 27.2606 30.434 26.6233 29.9111 26.1019C29.3882 25.5804 28.7504 25.3197 27.9976 25.3197C27.2662 25.3197 26.6346 25.5812 26.1026 26.1043C25.5706 26.6274 25.3046 27.2654 25.3046 28.0185C25.3046 28.7501 25.5714 29.382 26.105 29.9142C26.6386 30.4464 27.2711 30.7125 28.0024 30.7125ZM29.1652 37.7578L37.4514 33.0144V23.9204L32.8551 26.677C32.9381 26.9531 32.9873 27.1978 33.0027 27.4109C33.0181 27.6241 33.0258 27.8258 33.0258 28.0161C33.0258 29.1924 32.6642 30.2242 31.941 31.1113C31.2179 31.9984 30.2926 32.5922 29.1652 32.8926V37.7578Z" fill="#00FFB2"/>
</svg>
