<svg width="56" height="56" viewBox="0 0 56 56" fill="none" xmlns="http://www.w3.org/2000/svg">
<circle cx="28" cy="28" r="28" fill="#F4D5DA"/>
<path d="M21.0767 37C20.4976 37 20.0067 36.7979 19.604 36.3937C19.2013 35.9895 19 35.4972 19 34.917V29.8207C19 29.2404 19.2021 28.7481 19.6064 28.3439C20.0107 27.9397 20.5024 27.7376 21.0815 27.7376C21.6606 27.7376 22.1547 27.9397 22.5639 28.3439C22.9731 28.7481 23.1777 29.2404 23.1777 29.8207V34.917C23.1777 35.4972 22.9723 35.9895 22.5615 36.3937C22.1507 36.7979 21.6558 37 21.0767 37ZM27.9996 37C27.4205 37 26.929 36.7979 26.5249 36.3937C26.1209 35.9895 25.9189 35.4979 25.9189 34.9189V21.0811C25.9189 20.5021 26.121 20.0105 26.5253 19.6063C26.9296 19.2021 27.4213 19 28.0004 19C28.5795 19 29.071 19.2021 29.4751 19.6063C29.8791 20.0105 30.0811 20.5021 30.0811 21.0811V34.9189C30.0811 35.4979 29.879 35.9895 29.4747 36.3937C29.0704 36.7979 28.5787 37 27.9996 37ZM34.9185 37C34.3394 37 33.8453 36.7979 33.4361 36.3937C33.0269 35.9895 32.8223 35.4957 32.8223 34.9123V26.5487C32.8223 25.9653 33.0277 25.4715 33.4385 25.0673C33.8493 24.6631 34.3442 24.461 34.9233 24.461C35.5024 24.461 35.9933 24.6631 36.396 25.0673C36.7987 25.4715 37 25.9653 37 26.5487V34.9123C37 35.4957 36.7979 35.9895 36.3936 36.3937C35.9893 36.7979 35.4976 37 34.9185 37Z" fill="#003932"/>
</svg>
